# xmcd CD Database Entry
#
# Track frame offsets:
# 151
# 14718
# 35485
# 52740
# 74217
# 92344
# 113715
# 133092
# 150405
# 166854
# 183933
# 200164
# 216809
# 237238
# 257669
# 274236
# 293503
# 311356
#
# Disc length: 4423 seconds
#
# Revision: 1
# Processed by: cddbd v1.4PL0 Copyright (c) Steve Scherf et al.
# Submitted via: tcd 2.0b
#
DISCID=fd114512
DTITLE=孫燕姿 - 風箏
DYEAR=1900
DGENRE=
TTITLE0=綠光
TTITLE1=風箏
TTITLE2=任性
TTITLE3=逃亡
TTITLE4=不是真的愛我
TTITLE5=真的
TTITLE6=練習
TTITLE7=愛情字典
TTITLE8=隨堂測驗
TTITLE9=我是我
TTITLE10=我要的幸福
TTITLE11=零缺點
TTITLE12=壞天氣
TTITLE13=開始懂了
TTITLE14=超快感
TTITLE15=愛情證書
TTITLE16=天黑黑
TTITLE17=終於
EXTD=
EXTT0=
EXTT1=
EXTT2=
EXTT3=
EXTT4=
EXTT5=
EXTT6=
EXTT7=
EXTT8=
EXTT9=
EXTT10=
EXTT11=
EXTT12=
EXTT13=
EXTT14=
EXTT15=
EXTT16=
EXTT17=
PLAYORDER=
